<?xml version="1.0" encoding="UTF-8"?>
<svg xmlns="http://www.w3.org/2000/svg" id="Outline" viewBox="0 0 512 512" width="512" height="512"><path d="M31.029,397.656,18.343,410.343a8,8,0,0,0,0,11.314l72,72a8,8,0,0,0,11.314,0l12.687-12.686a23.985,23.985,0,0,0,6.379-22.38L136,443.314l7.029,7.03a24.029,24.029,0,0,0,33.942,0l3.716-3.716a15.994,15.994,0,0,1,22.626,0l11.716,11.716a24.031,24.031,0,0,0,33.942,0l9.373-9.373a24,24,0,0,0,0-33.942L211.314,368l13.843-13.843,58.6,36.627a8,8,0,0,0,9.9-1.127l53.524-53.523a24.113,24.113,0,0,0,1.251-32.59L314.9,264.419,451.945,127.37l37.624-7.525a8,8,0,0,0,4.088-13.5l-88-88a8,8,0,0,0-13.5,4.088L384.63,60.055,53.409,391.277A23.985,23.985,0,0,0,31.029,397.656ZM284.382,320.3l-15.613-9.758L280,299.314,292.687,312ZM280,276.686,235.314,232,248,219.314,292.686,264ZM268.686,288,112,444.686,67.314,400,224,243.314ZM103.029,469.656,96,476.687,35.313,416l7.031-7.029a8.007,8.007,0,0,1,11.312,0l49.373,49.373A8.007,8.007,0,0,1,103.029,469.656Zm144-43.312a8.007,8.007,0,0,1,0,11.312l-9.373,9.373a8.007,8.007,0,0,1-11.312,0l-11.716-11.716a32.039,32.039,0,0,0-45.256,0l-3.716,3.716a8,8,0,0,1-11.312,0L147.314,432,200,379.314Zm39.815-52.5-50.076-31.3,20.389-20.388,50.075,31.3Zm49.439-59.887a8.036,8.036,0,0,1-.417,10.863l-17.023,17.024-20.536-12.835,11.35-11.351a8,8,0,0,0,0-11.314L291.314,288l12.235-12.234Zm68.63-273.729,66.86,66.86-21.144,4.228L400.685,61.371ZM436.686,120,304,252.686,259.314,208,392,75.314Z"/></svg>
