<?xml version="1.0" encoding="iso-8859-1"?>
<!-- Generator: Adobe Illustrator 19.0.0, SVG Export Plug-In . SVG Version: 6.00 Build 0)  -->
<svg version="1.1" id="Layer_1" xmlns="http://www.w3.org/2000/svg" xmlns:xlink="http://www.w3.org/1999/xlink" x="0px" y="0px"
	 viewBox="0 0 511.973 511.973" style="enable-background:new 0 0 511.973 511.973;" xml:space="preserve">
<g>
	<g>
		<path d="M287.156,251.994c-4.172-4.164-10.922-4.164-15.093,0c-4.155,4.164-4.155,10.92,0,15.084
			c4.171,4.164,10.921,4.164,15.093,0C291.312,262.914,291.312,256.158,287.156,251.994z"/>
	</g>
</g>
<g>
	<g>
		<g>
			<path d="M478.269,7.29c-1.172-3.507-4.078-6.155-7.672-7.007c-3.593-0.844-7.374,0.227-9.983,2.836l-233.797,233.79
				c-4.156-4.164-10.921-4.164-15.077,0c-4.172,4.164-4.172,10.921,0,15.085l-54.513,54.52l-0.016,0.016l-90.479,90.479
				c-0.016,0-0.016,0-0.016,0.016c0,0,0,0-0.016,0l-30.045,30.061c-0.047,0.031-0.078,0.062-0.109,0.094
				c-12.468,12.484-12.468,32.779,0,45.248c5.625,5.641,12.984,8.906,20.874,9.328c0.406,7.592,3.515,15.061,9.296,20.842
				c6.046,6.047,14.077,9.375,22.624,9.375c8.546,0,16.577-3.328,22.639-9.391c0.031-0.031,0.062-0.062,0.094-0.094l30.045-30.045
				h0.016c0-0.016,0.016-0.016,0.016-0.016l90.479-90.479v-0.016c0,0,0.016,0,0.016-0.016l54.512-54.498
				c2.078,2.078,4.812,3.125,7.531,3.125c2.734,0,5.468-1.047,7.546-3.125c4.172-4.17,4.172-10.92,0-15.092l128.211-128.203
				c41.325-41.333,52.185-87.064,54.013-118.156C486.441,32.25,478.597,8.29,478.269,7.29z M226.816,267.079l15.093,15.093
				l-46.981,46.965l-15.093-15.076L226.816,267.079z M104.418,389.475c-4.157,4.173-4.157,10.923,0,15.079
				c4.171,4.172,10.921,4.172,15.093,0c4.156-4.156,4.156-10.922,0-15.078c-4.171-4.17-10.921-4.17-15.077-0.016l60.324-60.324
				l15.078,15.094l-15.078,15.076l-8.609,8.609l-51.715,51.732l-15.093-15.094L104.418,389.475z M59.171,460.472
				c-2.844,0-5.516-1.109-7.531-3.125c-4.141-4.14-4.172-10.857-0.063-15.013c0.016-0.031,0.047-0.062,0.078-0.094l22.608-22.592
				l15.077,15.076l-22.623,22.623C64.701,459.363,62.029,460.472,59.171,460.472z M96.918,487.47
				c-0.031,0.031-0.062,0.062-0.094,0.094c-2,1.984-4.656,3.078-7.484,3.078c-2.844,0-5.531-1.109-7.546-3.125
				c-4.156-4.154-4.156-10.92,0-15.076v-0.016l22.639-22.623l15.077,15.092L96.918,487.47z M149.68,434.724
				c4.156-4.172,4.156-10.922,0-15.076c-4.171-4.172-10.921-4.172-15.093,0c-4.156,4.154-4.156,10.904,0,15.076
				c4.172,4.156,10.921,4.172,15.077,0l-15.077,15.078l-15.077-15.078l60.197-60.197c-4.02,4.182-3.982,10.825,0.128,14.949
				c4.171,4.156,10.921,4.156,15.093,0L149.68,434.724z M194.927,389.476c4.157-4.17,4.157-10.92,0.001-15.092
				c-4.126-4.11-10.769-4.148-14.95-0.128l14.949-14.95l15.077,15.078L194.927,389.476z M225.098,359.306l-15.093-15.076
				l46.982-46.982l15.077,15.078L225.098,359.306z M463.161,64.716c-1.031,17.437-4.812,34.295-11.249,50.099
				c-8.062,19.787-20.358,38.028-36.545,54.223l-128.211,128.21l-45.247-45.254l30.154-30.162c2.094,2.078,4.812,3.117,7.546,3.117
				c2.734,0,5.453-1.039,7.547-3.117l90.494-90.502c4.172-4.164,4.172-10.922,0-15.086l84.198-84.197
				C463.067,40.624,463.911,51.835,463.161,64.716z"/>
			<path d="M164.758,344.23c-4.171-4.172-10.921-4.172-15.077,0c-4.171,4.156-4.171,10.906,0,15.076
				c4.156,4.172,10.906,4.172,15.077,0C168.93,355.136,168.93,348.386,164.758,344.23z"/>
		</g>
	</g>
</g>
<g>
</g>
<g>
</g>
<g>
</g>
<g>
</g>
<g>
</g>
<g>
</g>
<g>
</g>
<g>
</g>
<g>
</g>
<g>
</g>
<g>
</g>
<g>
</g>
<g>
</g>
<g>
</g>
<g>
</g>
</svg>
