<svg width="512" height="512" viewBox="0 0 512 512" fill="none" xmlns="http://www.w3.org/2000/svg">
<g clip-path="url(#clip0_101_6)">
<g clip-path="url(#clip1_101_6)">
<path d="M394.198 66.7153C385.077 60.5635 370.864 57.3815 348.731 56.6037L340.317 56.2501L338.125 49.2498C332.044 29.3094 313.73 10.7125 293.365 3.92425C273.071 -2.93469 248.959 -0.0355483 231.493 11.3489C223.573 16.44 211.482 29.3801 207.522 36.8754C200.946 49.3912 197.693 65.2304 199.108 78.0998C199.532 82.201 199.39 85.1708 198.613 85.5244C189.208 89.6963 161.065 104.263 151.731 109.778C119.346 129.011 83.0006 156.73 66.1008 175.044C60.3025 181.267 59.1711 182.964 58.0398 187.489C55.4942 196.964 58.1105 207.076 64.6866 213.652C68.5757 217.541 79.1823 221.077 84.7684 220.299C91.4152 219.45 95.6578 216.905 106.83 207.43C139.923 179.428 170.753 159.063 208.371 140.254C219.26 134.739 228.311 130.355 228.594 130.355C228.877 130.355 231.352 131.698 234.251 133.466C246.201 140.467 262.181 144.002 276.748 142.871C296.335 141.386 318.609 128.446 328.72 112.819L331.549 108.435L337.913 108.859C350.853 109.637 353.115 110.202 355.095 112.607L357.075 115.011L340.67 131.84L324.265 148.669L283.253 162.387C249.383 173.771 241.958 175.963 240.19 174.903C236.867 172.852 229.725 171.65 224.634 172.074C217.492 172.852 199.956 178.085 190.339 182.469C171.177 191.166 155.267 203.116 128.538 228.713C113.194 243.492 107.254 249.715 100.395 258.412C66.8079 300.909 48.8474 351.114 47.8574 405.561C47.3624 428.259 49.4838 438.583 56.767 449.826C61.9996 457.745 101.315 497.061 109.234 502.293C120.689 509.647 130.942 511.698 154.631 511.203C178.036 510.708 205.259 506.111 226.543 499.111C244.857 493.101 268.828 481.151 285.728 469.766C301.426 459.16 311.113 450.604 330.629 430.239C360.752 398.843 372.914 381.166 381.117 356.841C387.764 337.042 388.612 326.011 384.157 318.87C383.38 317.526 382.814 315.829 382.885 315.051C383.026 314.203 389.107 295.959 396.461 274.463L409.896 235.431L427.291 218.036L444.615 200.712L450.625 202.338C474.667 209.127 495.597 185.368 486.829 161.468C485.132 156.801 484.354 156.023 441.716 113.102C416.826 88.2114 396.532 68.3417 394.198 66.7153ZM468.232 172.993C468.162 177.448 465.05 181.691 460.808 182.964C455.717 184.519 454.868 183.812 406.997 135.941L362.096 91.0398L351.843 89.5549C320.306 85.1708 281.415 90.1206 241.251 103.838C194.299 119.819 136.811 154.255 91.9809 193.287C87.1726 197.53 83.8492 199.722 82.5057 199.793C79.3944 199.793 77.0609 196.752 77.6266 193.641C78.1216 191.308 79.8187 189.469 90.2131 180.347C159.439 119.607 229.089 86.585 305.386 78.1705C329.781 75.5542 365.773 76.8977 376.945 80.9989L382.178 82.8374L425.17 125.829L468.232 168.892V172.993ZM315.427 47.7649C320.094 56.533 320.164 56.4623 305.598 57.8765C280.708 60.2807 262.889 63.9576 235.948 72.0893L219.331 77.1098L219.684 69.2609C220.109 59.5028 223.644 49.0377 229.23 41.1888C243.867 20.612 273.495 14.743 296.83 27.8952C302.557 31.0772 311.962 41.0474 315.427 47.7649ZM415.412 201.631L400.916 216.127L371.924 187.136L342.933 158.144L357.429 143.649L371.924 129.153L400.916 158.144L429.907 187.136L415.412 201.631ZM294.072 116.496C287.354 119.819 280.849 121.799 274.485 122.365C269.748 122.718 258.292 121.587 257.302 120.597C256.1 119.395 276.96 114.091 294.213 111.263C301.567 109.99 302.699 109.99 301.497 111.617C300.719 112.677 297.325 114.799 294.072 116.496ZM332.185 178.792C331.69 179.287 319.74 186.57 305.598 195.055L279.93 210.399L270.384 201.278C265.151 196.187 261.05 191.944 261.262 191.732C261.474 191.52 275.97 186.641 293.436 180.772L325.255 170.165L329.145 174.054C331.761 176.67 332.751 178.226 332.185 178.792ZM349.721 237.764L333.529 264.705L313.942 245.118L294.355 225.532L321.296 209.339L348.236 193.146L357.075 201.985L365.914 210.824L349.721 237.764ZM377.793 266.119L366.904 298.081L357.782 288.959L348.661 279.837L350.641 276.443C354.954 268.877 380.41 226.734 380.763 226.38C380.975 226.168 382.885 227.794 384.935 230.128L388.612 234.229L377.793 266.119ZM259.848 221.43C259.707 221.572 254.05 224.966 247.332 228.996C235.029 236.35 215.654 249.361 207.734 255.725C202.643 259.685 203.209 259.968 195.218 248.159C188.572 238.259 181.218 223.976 179.521 217.47L178.248 212.804L183.905 209.127C195.996 201.278 221.735 191.803 228.806 192.651C231.917 192.934 233.049 193.924 246.13 207.005C253.908 214.783 260.06 221.218 259.848 221.43ZM314.012 298.505C305.527 312.647 293.789 330.325 287.001 339.234L283.819 343.406L272.788 333.365C260.979 322.688 216.149 277.009 216.149 275.595C216.078 273.827 241.18 256.644 262.323 243.987L275.334 236.209L299.092 259.968L322.851 283.726L314.012 298.505ZM366.409 330.254C367.328 337.254 357.782 363.064 349.933 375.155L346.327 380.741L342.721 379.822C333.882 377.772 315.285 367.801 304.254 359.175L299.87 355.781L303.901 350.76C309.063 344.325 328.862 314.486 333.387 306.283C335.296 302.818 337.135 299.707 337.418 299.424C337.771 299.071 344.277 305.152 352.055 312.93C365.136 326.011 366.126 327.143 366.409 330.254ZM166.722 239.744C169.056 244.906 173.935 253.321 177.541 258.624C181.147 263.927 184.683 269.16 185.46 270.221L186.804 272.271L178.106 280.12C169.48 288.04 142.468 316.89 139.569 321.344C137.589 324.314 136.811 323.537 129.387 312.294C122.104 301.051 116.73 290.444 114.467 282.524C112.558 275.807 112.628 275.736 115.881 271.635C124.013 261.382 134.902 249.927 146.994 238.825C162.126 224.824 159.722 224.683 166.722 239.744ZM320.871 411.43C310.123 423.168 298.244 434.482 287.637 443.108L282.97 446.927L273.849 443.745C264.798 440.633 248.322 431.512 239.483 424.653C235.453 421.471 235.241 421.117 236.867 420.339C240.332 418.43 271.798 389.085 279.223 380.812L286.789 372.256L288.839 373.6C289.9 374.377 294.426 377.489 298.739 380.529C306.164 385.691 323.77 395.237 327.942 396.298C329.003 396.651 330.347 397.288 330.983 397.924C332.044 398.985 330.7 400.753 320.871 411.43ZM225.129 315.546C235.736 326.718 249.029 339.729 256.878 346.588C264.303 353.164 270.313 358.892 270.313 359.316C270.313 362.286 221.311 408.743 218.836 408.106C218.341 408.036 210.138 400.682 200.592 391.843C184.258 376.782 151.095 342.204 151.095 340.224C151.095 337.396 189.42 296.242 197.34 290.585L200.451 288.323L203.633 292.353C205.401 294.545 215.017 305.01 225.129 315.546ZM104.143 310.243C107.467 316.253 113.053 325.092 116.73 330.042C120.336 334.921 123.518 339.376 123.801 339.941C124.013 340.436 122.033 343.972 119.346 347.649C105.133 366.811 85.9705 400.258 75.9296 423.592C73.5961 429.037 71.4041 433.492 71.0505 433.421C69.5656 433.492 68.01 419.208 68.3635 407.399C68.9999 379.186 73.384 355.851 82.7178 330.678C85.9705 321.91 95.7993 300.626 97.2135 299.212C97.7085 298.717 97.7792 298.646 104.143 310.243ZM257.868 462.978C248.322 468.847 222.866 479.171 209.007 482.848C187.723 488.434 165.166 491.192 144.236 490.767C133.983 490.555 125.568 489.212 125.639 487.868C125.639 487.585 130.73 485.181 136.953 482.494C160.5 472.1 186.592 457.463 206.179 443.533C219.684 433.845 218.27 434.269 223.927 438.795C230.22 443.815 246.625 454.281 253.272 457.392C260.343 460.786 260.697 461.281 257.868 462.978ZM200.098 422.602C199.532 423.168 194.299 426.845 188.501 430.805C167.641 444.876 142.044 458.452 118.215 467.998L106.618 472.665L96.5064 462.554L86.3947 452.442L91.0616 440.846C100.608 417.016 114.184 391.56 128.609 370.347C132.64 364.337 136.316 359.104 136.741 358.68C137.306 358.114 146.357 366.741 169.338 389.722C197.128 417.511 201.017 421.683 200.098 422.602Z" fill="black"/>
</g>
</g>
<defs>
<clipPath id="clip0_101_6">
<rect width="512" height="512" fill="white"/>
</clipPath>
<clipPath id="clip1_101_6">
<rect width="512" height="512" fill="white" transform="translate(234.039 -95) rotate(45)"/>
</clipPath>
</defs>
</svg>
