<svg width="512" height="512" viewBox="0 0 512 512" fill="none" xmlns="http://www.w3.org/2000/svg">
<g clip-path="url(#clip0_103_16)">
<path d="M309.27 138.547C235.154 203.554 172.186 259.455 169.359 262.714C163.342 269.665 159.691 278.416 158.635 288.145C158.109 293.612 156.137 298.603 147.038 317.367C139.124 333.619 135.216 340.586 133.138 342.073C131.25 343.443 127.045 344.714 120.713 345.77C114.68 346.8 109.487 348.258 106.802 349.697C103.074 351.83 31.0186 423.182 25.7897 429.963C22.0153 435.011 22.826 436.245 48.2759 465.539C61.4429 480.649 73.5478 493.944 75.0557 495.117C78.1626 497.355 81.3766 497.375 84.0912 495.13C85.1173 494.237 101.231 470.743 119.885 443.012L153.817 392.563L160.291 389.687C174.192 383.352 178.923 376.614 181.426 359.33C183.204 347.53 186.106 338.242 190.632 330.317C194.748 323.432 212.836 307.595 217.22 307.212C224.193 306.602 232.529 302.058 242.028 293.598C253.115 283.794 255.72 279.15 255.088 270.773C254.731 266.688 253.807 264.159 251.5 260.747L248.392 256.201L256.973 248.725C261.723 244.495 277.95 230.326 293.151 217.051C308.252 203.784 321.192 192.213 321.811 191.255C322.53 190.289 322.728 187.963 322.211 185.498C321.599 181.938 321.836 181.215 324.17 179.203L326.876 176.859L331.379 181.283C336.206 185.98 342.372 188.753 347.361 188.417C352.342 187.982 357.334 184.232 391.096 154.778C419.545 130.004 423.614 126.034 425.176 122.083C428.044 114.705 426.434 108.923 419.113 99.8266L417.093 97.3934L442.555 75.1898C456.44 62.933 468.817 51.8119 470.008 50.5031C473.462 46.3864 472.287 43.277 463.025 32.6438C458.344 27.3315 453.581 22.2272 452.398 21.3269C447.042 17.4791 452.281 13.1058 309.27 138.547ZM449.415 41.1623C450.525 42.3702 451.453 43.7948 451.613 44.4834C451.666 45.0811 444.535 51.9287 435.681 59.73C420.68 72.9879 419.645 73.7811 418.102 72.2096C414.306 67.8238 414.033 68.1488 430.714 53.439C439.468 45.6464 446.842 39.2795 446.941 39.2708C447.132 39.1537 448.215 40.0628 449.415 41.1623ZM405.585 81.7368L407.722 84.3606L359.158 127.056L310.603 169.85L308.059 167.162C306.625 165.681 305.498 164.274 305.571 163.967C305.493 163.07 400.966 79.4306 402.162 79.326C402.751 79.1741 404.358 80.3384 405.585 81.7368ZM408.208 111.722C409.543 113.212 410.597 114.926 410.64 115.424C410.771 116.919 346.383 172.643 345.044 172.258C344.321 172.02 342.886 170.539 341.742 168.933L339.678 166.002L348.359 158.517C353.108 154.287 367.655 141.57 380.804 130.081C393.844 118.5 404.867 109.104 405.266 109.069C405.664 109.034 406.973 110.224 408.208 111.722ZM298.806 180.72C301.493 183.898 303.249 186.756 302.894 187.289C297.933 192.541 232.076 248.694 231.153 248.474C229.706 247.998 221.086 237.811 221.631 237.161C221.813 236.944 235.615 224.895 252.305 210.285C268.996 195.675 284.751 181.849 287.257 179.522C289.864 177.186 292.405 175.257 293.003 175.205C293.492 175.061 296.118 177.542 298.806 180.72ZM214.402 254.356L219.426 260.141L215.438 263.902C211.724 267.339 211.049 268.804 207.729 281.341L204.097 294.909L197.105 301.042C193.282 304.387 189.542 307.525 188.879 307.985C188.026 308.561 185.634 306.462 180.953 301.15C174.829 294.257 174.118 293.014 174.446 289.874C174.898 284.715 178.285 276.388 181.294 272.913C184.12 269.654 207.603 248.928 208.699 248.832C208.989 248.707 211.624 251.287 214.402 254.356ZM238.242 269.837C239.179 271.362 239.409 272.847 238.907 273.995C238.068 275.876 223.266 289.116 222.616 288.571C222.399 288.389 223.134 285.313 224.323 281.696C225.97 276.432 227.308 274.508 230.949 271.379C233.473 269.251 235.924 267.43 236.223 267.404C236.621 267.369 237.523 268.495 238.242 269.837ZM172.727 316.124L176.849 320.782L172.255 332.527C169.132 340.429 166.97 347.846 165.748 355.682C164.518 363.419 163.217 368.05 161.862 369.775C160.598 371.391 156.398 373.867 151.556 375.896L143.332 379.426L118.017 417.076C97.2427 448.105 92.4858 454.544 91.2942 453.544C90.5358 452.908 83.1852 444.617 74.9331 435.2L59.9805 418.038L75.2884 402.545C117.978 359.259 112.904 363.217 127.842 360.705C142.888 358.285 147.304 353.682 158.839 329.485C163.507 319.741 167.618 311.652 168.016 311.617C168.307 311.491 170.499 313.608 172.727 316.124ZM66.9148 450.256L83.0941 468.817L81.3544 471.88C80.3894 473.47 79.2076 474.879 78.7095 474.922C78.2114 474.966 70.1025 466.038 60.5242 455.232L43.2268 435.364L45.6725 432.339C47.5727 429.965 48.2439 429.605 49.3273 430.514C50.0856 431.15 57.9953 440.095 66.9148 450.256Z" fill="black"/>
</g>
<defs>
<clipPath id="clip0_103_16">
<rect width="512" height="512" fill="white"/>
</clipPath>
</defs>
</svg>
