<?xml version="1.0" standalone="no"?>
<!DOCTYPE svg PUBLIC "-//W3C//DTD SVG 20010904//EN"
 "http://www.w3.org/TR/2001/REC-SVG-20010904/DTD/svg10.dtd">
<svg version="1.0" xmlns="http://www.w3.org/2000/svg"
 width="512.000000pt" height="512.000000pt" viewBox="0 0 512.000000 512.000000"
 preserveAspectRatio="xMidYMid meet">

<g transform="translate(0.000000,512.000000) scale(0.100000,-0.100000)"
fill="#000000" stroke="none">
<path d="M3260 3850 c-795 -583 -1471 -1085 -1502 -1115 -66 -64 -110 -148
-129 -244 -10 -54 -34 -102 -141 -281 -93 -155 -138 -221 -160 -234 -20 -12
-63 -21 -127 -26 -61 -5 -114 -15 -142 -27 -39 -18 -819 -666 -877 -729 -42
-47 -35 -60 193 -374 118 -162 227 -305 241 -318 29 -25 61 -28 90 -8 11 8
192 228 402 488 l382 473 67 23 c144 51 197 114 237 284 28 116 65 206 117
281 47 65 241 207 285 207 70 0 157 38 259 114 119 88 149 132 150 216 0 41
-7 67 -27 103 l-27 48 92 67 c51 38 225 165 388 284 162 119 301 223 308 232
8 9 12 32 9 57 -3 36 0 43 25 61 l29 21 41 -48 c44 -51 103 -84 153 -85 50 0
103 33 465 297 305 222 349 258 368 296 35 71 24 130 -41 227 l-18 26 273 199
c149 110 282 210 295 222 38 38 29 70 -54 184 -42 57 -85 112 -96 122 -50 43
6 82 -1528 -1043z m1481 848 c10 -13 18 -28 19 -35 0 -6 -77 -68 -172 -138
-161 -119 -172 -126 -186 -109 -34 47 -37 44 142 176 94 70 173 127 174 127 2
1 12 -9 23 -21z m-472 -366 l19 -28 -521 -383 -521 -384 -23 29 c-13 16 -23
31 -22 34 0 9 1024 759 1036 759 6 1 21 -12 32 -27z m0 -301 c12 -16 21 -34
21 -39 0 -15 -690 -514 -703 -509 -7 3 -20 19 -30 36 l-18 31 93 67 c51 38
207 152 348 255 140 104 258 188 262 188 4 0 16 -13 27 -29z m-1150 -592 c24
-34 39 -64 35 -69 -54 -48 -759 -550 -768 -547 -14 6 -91 115 -85 121 2 2 150
110 329 241 179 131 348 255 375 276 28 21 55 38 61 38 5 1 29 -26 53 -60z
m-905 -660 l45 -62 -43 -34 c-40 -31 -48 -45 -92 -167 l-48 -132 -75 -55 c-41
-30 -81 -58 -88 -62 -9 -5 -31 18 -73 75 -55 74 -61 87 -55 118 9 51 50 131
83 163 31 30 283 216 294 216 3 1 27 -27 52 -60z m224 -175 c8 -16 9 -31 3
-42 -10 -18 -169 -137 -175 -131 -2 2 8 32 23 67 21 51 36 69 75 97 27 19 53
35 56 35 4 0 12 -12 18 -26z m-693 -404 l37 -50 -56 -113 c-38 -76 -66 -148
-85 -225 -19 -76 -36 -121 -51 -137 -14 -15 -58 -36 -108 -52 l-85 -28 -285
-353 c-234 -291 -287 -351 -298 -340 -7 7 -73 96 -147 197 l-134 184 166 141
c463 394 409 359 560 371 152 11 200 53 336 284 55 93 103 170 107 170 3 1 23
-22 43 -49z m-1171 -1244 l145 -199 -20 -29 c-11 -15 -24 -28 -29 -28 -5 0
-78 96 -164 212 l-155 213 27 28 c21 22 28 25 38 15 7 -7 78 -103 158 -212z"/>
</g>
</svg>
