<svg width="512" height="512" viewBox="0 0 512 512" fill="none" xmlns="http://www.w3.org/2000/svg">
<g clip-path="url(#clip0_101_6)">
<g clip-path="url(#clip1_101_6)">
<path d="M42.5305 325.779C42.4598 329.244 42.6719 329.456 54.9048 341.689L67.2792 354.063L60.5617 360.781C54.3392 367.003 53.7735 367.852 53.8442 371.034C53.7735 374.216 54.3392 375.064 60.5617 381.287C66.1478 386.873 67.0671 388.216 66.2186 389.065C65.5822 389.701 65.0872 391.752 65.1579 393.661L65.0872 397.126L112.534 444.573L159.981 492.02L163.446 491.949C166.769 492.02 167.193 491.737 177.588 481.342C187.982 470.948 188.265 470.524 188.194 467.2C188.265 464.442 187.558 463.028 184.8 460.27C170.234 445.704 160.688 422.016 160.547 399.954C160.334 375.418 168.042 356.821 186.851 336.739L197.175 325.567L223.903 352.295C242.783 371.175 251.763 379.59 254.38 381.075C258.481 383.337 272.128 383.974 274.037 382.064C275.027 381.075 278.421 384.186 305.221 410.985L335.343 441.108L338.808 441.037L342.273 441.108L358.607 424.774L374.941 408.44L374.871 404.975L374.941 401.51L345.526 372.094C319.504 346.073 316.322 342.608 317.241 341.689C317.878 341.052 318.373 339.002 318.302 337.092L318.373 333.628L297.089 312.344L275.876 291.131L283.795 289.575L291.786 287.949L299.493 280.241C309.393 270.342 311.231 266.806 311.231 257.897C311.302 249.199 309.393 245.451 300.342 236.4L293.553 229.612L345.526 177.64L397.569 125.597L397.498 122.132C397.569 119.233 396.862 117.96 393.609 114.707L389.72 110.818L396.437 104.101C402.66 97.8783 403.226 97.0297 403.155 93.8478C403.226 91.9386 402.731 89.888 402.094 89.2516C401.175 88.3323 403.296 85.9282 419.065 70.1597L437.167 52.0578L437.096 48.5929C437.167 45.2695 436.884 44.8453 426.489 34.4508C416.095 24.0563 415.671 23.7735 412.347 23.8442L408.883 23.7735L390.781 41.8754C375.012 57.6439 372.608 59.7652 371.689 58.846C371.052 58.2096 369.002 57.7146 367.092 57.7853C363.911 57.7146 363.062 58.2803 356.839 64.5028L350.122 71.2203L346.233 67.3313C342.98 64.0786 341.707 63.3715 338.808 63.4422C336.899 63.3715 334.848 63.8664 334.212 64.5028C333.363 65.3514 332.02 64.4321 326.434 58.846C320.211 52.6234 319.363 52.0578 316.181 52.1285C312.716 52.0578 312.575 52.1992 299.21 65.5635C285.846 78.9278 285.705 79.0692 285.775 82.5341C285.705 85.716 286.27 86.5646 292.493 92.7871L299.21 99.5046L282.24 116.475L265.269 133.446L258.552 126.728C252.329 120.506 251.481 119.94 248.299 120.011C244.975 119.94 244.551 120.223 234.156 130.617C223.762 141.012 223.479 141.436 223.55 144.759C223.479 147.941 224.045 148.79 230.267 155.012L236.985 161.73L167.759 230.956L98.604 300.111L85.5933 297.424C78.4515 296.08 71.8047 295.09 70.6733 295.373C69.6127 295.727 62.8952 301.879 55.612 309.162C42.6012 322.173 42.4598 322.314 42.5305 325.779ZM80.29 312.768L84.9569 313.758L76.1181 322.597L67.2792 331.436L64.4508 328.607L61.6224 325.779L68.6227 318.778L75.5524 311.849L80.29 312.768ZM251.127 141.931L253.955 144.759L251.127 147.588L248.299 150.416L245.47 147.588L242.642 144.759L245.47 141.931L248.299 139.103L251.127 141.931ZM319.009 74.0488L321.838 76.8772L316.181 82.5341L310.524 88.1909L307.696 85.3625L304.867 82.5341L310.524 76.8772L316.181 71.2203L319.009 74.0488ZM341.637 85.3625L344.465 88.1909L295.321 137.335L246.107 186.549L246.177 190.014C246.107 192.913 246.814 194.186 250.066 197.439L253.955 201.328L174.759 280.524L95.5635 359.72L87.0782 351.235L78.5929 342.749L208.701 212.642L338.808 82.5341L341.637 85.3625ZM81.4214 368.205L84.2498 371.034L81.4214 373.862L78.5929 376.69L75.7645 373.862L72.9361 371.034L75.7645 368.205L78.5929 365.377L81.4214 368.205ZM375.578 85.3625L384.063 93.8478L381.235 96.6762L378.406 99.5046L369.921 91.0193L361.436 82.5341L364.264 79.7056L367.092 76.8772L375.578 85.3625ZM367.092 110.818L378.406 122.132L375.578 124.96L372.749 127.789L366.032 121.071C359.809 114.849 358.961 114.283 355.779 114.354C353.587 114.283 351.465 115.132 350.122 116.475C348.778 117.819 347.93 119.94 348.001 122.132C347.93 125.314 348.496 126.163 354.718 132.385L361.436 139.103L358.607 141.931L355.779 144.759L349.061 138.042C342.839 131.819 341.99 131.254 338.808 131.324C336.616 131.254 334.495 132.102 333.151 133.446C331.808 134.789 330.959 136.911 331.03 139.103C330.959 142.285 331.525 143.133 337.748 149.356L344.465 156.073L341.637 158.902L338.808 161.73L332.091 155.012C325.868 148.79 325.02 148.224 321.838 148.295C319.646 148.224 317.524 149.073 316.181 150.416C314.837 151.76 313.989 153.881 314.059 156.073C313.989 159.255 314.554 160.104 320.777 166.326L327.495 173.044L324.666 175.872L321.838 178.701L315.12 171.983C308.898 165.761 308.049 165.195 304.867 165.266C302.675 165.195 300.554 166.043 299.21 167.387C297.867 168.73 297.018 170.852 297.089 173.044C297.018 176.226 297.584 177.074 303.806 183.297L310.524 190.014L307.696 192.843L304.867 195.671L298.15 188.954C291.927 182.731 291.079 182.165 287.897 182.236C283.3 182.165 280.048 185.418 280.118 190.014C280.048 193.196 280.613 194.045 286.836 200.267L293.553 206.985L290.725 209.813L287.897 212.642L276.583 201.328L265.269 190.014L310.524 144.759L355.779 99.5046L367.092 110.818ZM415.176 45.7645L418.004 48.5929L403.862 62.7351L389.72 76.8772L386.891 74.0488L384.063 71.2203L398.205 57.0782L412.347 42.9361L415.176 45.7645ZM174.759 314.465L180.416 320.122L137.99 362.548L95.5635 404.975L89.9066 399.318L84.2498 393.661L126.676 351.235L169.103 308.808L174.759 314.465ZM270.926 218.299L276.583 223.955L234.156 266.382L191.73 308.808L186.073 303.151L180.416 297.495L222.843 255.068L265.269 212.642L270.926 218.299ZM140.818 438.916L169.103 467.2L166.274 470.029L163.446 472.857L135.161 444.573L106.877 416.288L109.706 413.46L112.534 410.632L140.818 438.916ZM145.697 382.418C144.354 390.408 144.283 406.177 145.627 414.874L146.617 422.087L135.232 410.702L123.848 399.318L135.303 387.863L146.758 376.408L145.697 382.418ZM270.926 308.808L299.21 337.092L284.007 352.295C268.734 367.569 268.734 367.569 265.269 367.498L261.804 367.569L235.217 340.982L208.701 314.465L225.671 297.495L242.642 280.524L270.926 308.808ZM268.522 265.958C277.926 265.887 280.33 265.463 282.169 263.624C286.977 258.816 283.937 250.684 276.936 249.906L273.684 249.482L277.926 245.239L282.24 240.926L288.957 247.643C295.18 253.866 295.745 254.715 295.675 257.897C295.745 261.079 295.18 261.927 289.876 267.23L284.078 273.029L273.189 275.291L262.229 277.483L258.127 273.382C254.309 269.564 254.097 269.069 255.511 267.655C256.501 266.665 261.239 266.028 268.522 265.958ZM330.323 379.519L355.779 404.975L347.294 413.46L338.808 421.945L313.352 396.489L287.897 371.034L296.382 362.548L304.867 354.063L330.323 379.519Z" fill="black"/>
</g>
</g>
<defs>
<clipPath id="clip0_101_6">
<rect width="512" height="512" fill="white"/>
</clipPath>
<clipPath id="clip1_101_6">
<rect width="512" height="512" fill="white" transform="translate(-60 272.039) rotate(-45)"/>
</clipPath>
</defs>
</svg>
