<svg id="icons" enable-background="new 0 0 64 64" height="512" viewBox="0 0 64 64" width="512" xmlns="http://www.w3.org/2000/svg"><g><g><path d="m9.982 51.196 2.821 2.821.01.009-2.11 2.101-2.83-2.83z" fill="#656d78"/></g><g><path d="m61.623 3.797c1.559 1.56 1.559 4.09 0 5.649l-25.42 25.42-11.311 7.07-3.66 3.66-2.82-2.83 3.65-3.66 7.07-11.3 25.42-25.42c1.57-1.57 4.1-1.57 5.66 0z" fill="#f7c292"/></g><g><path d="m16.303 44.877 2.82 2.819.01.011-2.11 2.1-2.83-2.83z" fill="#545c66"/></g><g><path d="m14.912 51.917-2.099 2.109-.01-.009-2.821-2.821 2.1-2.109z" fill="#545c66"/></g><g><path d="m12.552 47.954h4.002v2.985h-4.002z" fill="#656d78" transform="matrix(-.707 -.707 .707 -.707 -10.121 94.701)"/></g><g><path d="m21.232 45.597-2.099 2.11-.01-.011-2.82-2.819 2.109-2.11z" fill="#656d78"/></g><g><path d="m8.592 58.236-2.139 2.141-2.83-2.82v-.01l2.139-2.141z" fill="#f7c292"/></g><g><path d="m6.231 54.274h4.002v2.984h-4.002z" fill="#545c66" transform="matrix(-.707 -.707 .707 -.707 -25.379 101.021)"/></g><g><path d="m6.445 60.38c.389.389.389 1.025 0 1.414l-.705.706c-.389.389-1.025.389-1.414 0l-2.826-2.826c-.389-.389-.389-1.025 0-1.414l.705-.706c.389-.389 1.025-.389 1.414 0z" fill="#ffd2a6"/></g></g></svg>