<svg height="512pt" viewBox="-7 -109 512 512" width="512pt" xmlns="http://www.w3.org/2000/svg"><path d="m282.246094 202.855469c38.039062-16.058594 77.089844-25.238281 111.167968-30.445313-16.46875-16.515625-47.453124-22.03125-73.355468-23.515625-39.042969-2.242187-75.847656 4.035157-76.214844 4.101563l-10.570312 1.832031-33.152344-63.546875c-13.25 9.96875-47.917969 17.808594-69.5 17.808594h-27.964844c-55.828125 0-101.386719 41.648437-102.625 93.285156 21.195312 3.972656 198.792969 35.691406 282.214844.480469zm0 0"/><path d="m249.535156 122.484375c14.691406-1.894531 42.601563-4.617187 72.203125-2.921875 25.652344 1.472656 47.339844 6.007812 64.457031 13.476562 18.976563 8.277344 32.515626 20.121094 40.410157 35.289063 6.546875-.613281 12.769531-1.089844 18.578125-1.445313 6.839844-.421874 19.925781-3.316406 32.492187-8.671874 13.855469-5.902344 18.792969-11.230469 19.632813-12.933594v-80l-.015625-65.277344-19.566407 6.886719c-.851562.300781-86.457031 29.734375-171.304687-.015625l-8.167969-2.863282-36.855468 32.828126 43.746093 41.457031-20.207031 21.324219-45.554688-43.171876-16.589843 14.777344zm0 0"/><path d="m446.988281 196.203125c-39.226562 2.417969-97.671875 10.226563-153.320312 33.71875-33.347657 14.074219-78.597657 18.738281-123.890625 18.738281-72.9375 0-145.996094-12.085937-169.777344-16.402344v40.746094l11.535156 2.535156c4.929688 1.082032 82.964844 17.941407 163.425782 17.9375 42.332031 0 85.339843-4.667968 118.707031-18.75 18.25-7.703124 38.132812-14.238281 59.3125-19.503906v38.21875h144.328125v-111.996094c-1.414063.722657-2.875 1.4375-4.390625 2.136719-14.613281 6.757813-33.070313 11.828125-45.929688 12.621094zm0 0"/></svg>